<?xml version="1.0" encoding="UTF-8"?>
<svg xmlns="http://www.w3.org/2000/svg" width="207" height="1137">
   <defs>
      <style type="text/css">
    @namespace "http://www.w3.org/2000/svg";
    .line                 {fill: none; stroke: #332900; stroke-width: 1;}
    .bold-line            {stroke: #141000; shape-rendering: crispEdges; stroke-width: 2;}
    .thin-line            {stroke: #1F1800; shape-rendering: crispEdges}
    .filled               {fill: #332900; stroke: none;}
    text.terminal         {font-family: Verdana, Sans-serif;
                            font-size: 12px;
                            fill: #141000;
                            font-weight: bold;
                          }
    text.nonterminal      {font-family: Verdana, Sans-serif;
                            font-size: 12px;
                            fill: #1A1400;
                            font-weight: normal;
                          }
    text.regexp           {font-family: Verdana, Sans-serif;
                            font-size: 12px;
                            fill: #1F1800;
                            font-weight: normal;
                          }
    rect, circle, polygon {fill: #332900; stroke: #332900;}
    rect.terminal         {fill: #FFDB4D; stroke: #332900; stroke-width: 1;}
    rect.nonterminal      {fill: #FFEC9E; stroke: #332900; stroke-width: 1;}
    rect.text             {fill: none; stroke: none;}
    polygon.regexp        {fill: #FFF4C7; stroke: #332900; stroke-width: 1;}
  </style>
   </defs>
   <polygon points="9 17 1 13 1 21"/>
   <polygon points="17 17 9 13 9 21"/>
   <rect x="51" y="3" width="28" height="32" rx="10"/>
   <rect x="49"
         y="1"
         width="28"
         height="32"
         class="terminal"
         rx="10"/>
   <text class="terminal" x="59" y="21">T</text>
   <rect x="51" y="47" width="30" height="32" rx="10"/>
   <rect x="49"
         y="45"
         width="30"
         height="32"
         class="terminal"
         rx="10"/>
   <text class="terminal" x="59" y="65">N</text>
   <rect x="51" y="91" width="92" height="32" rx="10"/>
   <rect x="49"
         y="89"
         width="92"
         height="32"
         class="terminal"
         rx="10"/>
   <text class="terminal" x="59" y="109">THIRD_OS</text>
   <rect x="51" y="135" width="92" height="32" rx="10"/>
   <rect x="49"
         y="133"
         width="92"
         height="32"
         class="terminal"
         rx="10"/>
   <text class="terminal" x="59" y="153">T_PLUS_N</text>
   <rect x="51" y="179" width="86" height="32" rx="10"/>
   <rect x="49"
         y="177"
         width="86"
         height="32"
         class="terminal"
         rx="10"/>
   <text class="terminal" x="59" y="197">T_AND_N</text>
   <rect x="51" y="223" width="76" height="32" rx="10"/>
   <rect x="49"
         y="221"
         width="76"
         height="32"
         class="terminal"
         rx="10"/>
   <text class="terminal" x="59" y="241">T_OR_N</text>
   <rect x="51" y="267" width="86" height="32" rx="10"/>
   <rect x="49"
         y="265"
         width="86"
         height="32"
         class="terminal"
         rx="10"/>
   <text class="terminal" x="59" y="285">T_XOR_N</text>
   <rect x="51" y="311" width="66" height="32" rx="10"/>
   <rect x="49"
         y="309"
         width="66"
         height="32"
         class="terminal"
         rx="10"/>
   <text class="terminal" x="59" y="329">NOT_T</text>
   <rect x="51" y="355" width="76" height="32" rx="10"/>
   <rect x="49"
         y="353"
         width="76"
         height="32"
         class="terminal"
         rx="10"/>
   <text class="terminal" x="59" y="373">N_EQ_T</text>
   <rect x="51" y="399" width="72" height="32" rx="10"/>
   <rect x="49"
         y="397"
         width="72"
         height="32"
         class="terminal"
         rx="10"/>
   <text class="terminal" x="59" y="417">N_LT_T</text>
   <rect x="51" y="443" width="82" height="32" rx="10"/>
   <rect x="49"
         y="441"
         width="82"
         height="32"
         class="terminal"
         rx="10"/>
   <text class="terminal" x="59" y="461">N_ULT_T</text>
   <rect x="51" y="487" width="72" height="32" rx="10"/>
   <rect x="49"
         y="485"
         width="72"
         height="32"
         class="terminal"
         rx="10"/>
   <text class="terminal" x="59" y="505">T2_DIV</text>
   <rect x="51" y="531" width="74" height="32" rx="10"/>
   <rect x="49"
         y="529"
         width="74"
         height="32"
         class="terminal"
         rx="10"/>
   <text class="terminal" x="59" y="549">T2_MUL</text>
   <rect x="51" y="575" width="38" height="32" rx="10"/>
   <rect x="49"
         y="573"
         width="38"
         height="32"
         class="terminal"
         rx="10"/>
   <text class="terminal" x="59" y="593">RT</text>
   <rect x="51" y="619" width="102" height="32" rx="10"/>
   <rect x="49"
         y="617"
         width="102"
         height="32"
         class="terminal"
         rx="10"/>
   <text class="terminal" x="59" y="637">N_MINUS_T</text>
   <rect x="51" y="663" width="54" height="32" rx="10"/>
   <rect x="49"
         y="661"
         width="54"
         height="32"
         class="terminal"
         rx="10"/>
   <text class="terminal" x="59" y="681">IO_T</text>
   <rect x="51" y="707" width="72" height="32" rx="10"/>
   <rect x="49"
         y="705"
         width="72"
         height="32"
         class="terminal"
         rx="10"/>
   <text class="terminal" x="59" y="725">STATUS</text>
   <rect x="51" y="751" width="82" height="32" rx="10"/>
   <rect x="49"
         y="749"
         width="82"
         height="32"
         class="terminal"
         rx="10"/>
   <text class="terminal" x="59" y="769">RSTATUS</text>
   <rect x="51" y="795" width="96" height="32" rx="10"/>
   <rect x="49"
         y="793"
         width="96"
         height="32"
         class="terminal"
         rx="10"/>
   <text class="terminal" x="59" y="813">NLSHIFT_T</text>
   <rect x="51" y="839" width="98" height="32" rx="10"/>
   <rect x="49"
         y="837"
         width="98"
         height="32"
         class="terminal"
         rx="10"/>
   <text class="terminal" x="59" y="857">NRSHIFT_T</text>
   <rect x="51" y="883" width="108" height="32" rx="10"/>
   <rect x="49"
         y="881"
         width="108"
         height="32"
         class="terminal"
         rx="10"/>
   <text class="terminal" x="59" y="901">NARSHIFT_T</text>
   <rect x="51" y="927" width="96" height="32" rx="10"/>
   <rect x="49"
         y="925"
         width="96"
         height="32"
         class="terminal"
         rx="10"/>
   <text class="terminal" x="59" y="945">L_UM_MUL</text>
   <rect x="51" y="971" width="98" height="32" rx="10"/>
   <rect x="49"
         y="969"
         width="98"
         height="32"
         class="terminal"
         rx="10"/>
   <text class="terminal" x="59" y="989">H_UM_MUL</text>
   <rect x="51" y="1015" width="90" height="32" rx="10"/>
   <rect x="49"
         y="1013"
         width="90"
         height="32"
         class="terminal"
         rx="10"/>
   <text class="terminal" x="59" y="1033">T_PLUS_1</text>
   <rect x="51" y="1059" width="102" height="32" rx="10"/>
   <rect x="49"
         y="1057"
         width="102"
         height="32"
         class="terminal"
         rx="10"/>
   <text class="terminal" x="59" y="1077">T_MINUS_1</text>
   <rect x="51" y="1103" width="68" height="32" rx="10"/>
   <rect x="49"
         y="1101"
         width="68"
         height="32"
         class="terminal"
         rx="10"/>
   <text class="terminal" x="59" y="1121">MEM_T</text>
   <path class="line"
         d="m17 17 h2 m20 0 h10 m28 0 h10 m0 0 h80 m-148 0 h20 m128 0 h20 m-168 0 q10 0 10 10 m148 0 q0 -10 10 -10 m-158 10 v24 m148 0 v-24 m-148 24 q0 10 10 10 m128 0 q10 0 10 -10 m-138 10 h10 m30 0 h10 m0 0 h78 m-138 -10 v20 m148 0 v-20 m-148 20 v24 m148 0 v-24 m-148 24 q0 10 10 10 m128 0 q10 0 10 -10 m-138 10 h10 m92 0 h10 m0 0 h16 m-138 -10 v20 m148 0 v-20 m-148 20 v24 m148 0 v-24 m-148 24 q0 10 10 10 m128 0 q10 0 10 -10 m-138 10 h10 m92 0 h10 m0 0 h16 m-138 -10 v20 m148 0 v-20 m-148 20 v24 m148 0 v-24 m-148 24 q0 10 10 10 m128 0 q10 0 10 -10 m-138 10 h10 m86 0 h10 m0 0 h22 m-138 -10 v20 m148 0 v-20 m-148 20 v24 m148 0 v-24 m-148 24 q0 10 10 10 m128 0 q10 0 10 -10 m-138 10 h10 m76 0 h10 m0 0 h32 m-138 -10 v20 m148 0 v-20 m-148 20 v24 m148 0 v-24 m-148 24 q0 10 10 10 m128 0 q10 0 10 -10 m-138 10 h10 m86 0 h10 m0 0 h22 m-138 -10 v20 m148 0 v-20 m-148 20 v24 m148 0 v-24 m-148 24 q0 10 10 10 m128 0 q10 0 10 -10 m-138 10 h10 m66 0 h10 m0 0 h42 m-138 -10 v20 m148 0 v-20 m-148 20 v24 m148 0 v-24 m-148 24 q0 10 10 10 m128 0 q10 0 10 -10 m-138 10 h10 m76 0 h10 m0 0 h32 m-138 -10 v20 m148 0 v-20 m-148 20 v24 m148 0 v-24 m-148 24 q0 10 10 10 m128 0 q10 0 10 -10 m-138 10 h10 m72 0 h10 m0 0 h36 m-138 -10 v20 m148 0 v-20 m-148 20 v24 m148 0 v-24 m-148 24 q0 10 10 10 m128 0 q10 0 10 -10 m-138 10 h10 m82 0 h10 m0 0 h26 m-138 -10 v20 m148 0 v-20 m-148 20 v24 m148 0 v-24 m-148 24 q0 10 10 10 m128 0 q10 0 10 -10 m-138 10 h10 m72 0 h10 m0 0 h36 m-138 -10 v20 m148 0 v-20 m-148 20 v24 m148 0 v-24 m-148 24 q0 10 10 10 m128 0 q10 0 10 -10 m-138 10 h10 m74 0 h10 m0 0 h34 m-138 -10 v20 m148 0 v-20 m-148 20 v24 m148 0 v-24 m-148 24 q0 10 10 10 m128 0 q10 0 10 -10 m-138 10 h10 m38 0 h10 m0 0 h70 m-138 -10 v20 m148 0 v-20 m-148 20 v24 m148 0 v-24 m-148 24 q0 10 10 10 m128 0 q10 0 10 -10 m-138 10 h10 m102 0 h10 m0 0 h6 m-138 -10 v20 m148 0 v-20 m-148 20 v24 m148 0 v-24 m-148 24 q0 10 10 10 m128 0 q10 0 10 -10 m-138 10 h10 m54 0 h10 m0 0 h54 m-138 -10 v20 m148 0 v-20 m-148 20 v24 m148 0 v-24 m-148 24 q0 10 10 10 m128 0 q10 0 10 -10 m-138 10 h10 m72 0 h10 m0 0 h36 m-138 -10 v20 m148 0 v-20 m-148 20 v24 m148 0 v-24 m-148 24 q0 10 10 10 m128 0 q10 0 10 -10 m-138 10 h10 m82 0 h10 m0 0 h26 m-138 -10 v20 m148 0 v-20 m-148 20 v24 m148 0 v-24 m-148 24 q0 10 10 10 m128 0 q10 0 10 -10 m-138 10 h10 m96 0 h10 m0 0 h12 m-138 -10 v20 m148 0 v-20 m-148 20 v24 m148 0 v-24 m-148 24 q0 10 10 10 m128 0 q10 0 10 -10 m-138 10 h10 m98 0 h10 m0 0 h10 m-138 -10 v20 m148 0 v-20 m-148 20 v24 m148 0 v-24 m-148 24 q0 10 10 10 m128 0 q10 0 10 -10 m-138 10 h10 m108 0 h10 m-138 -10 v20 m148 0 v-20 m-148 20 v24 m148 0 v-24 m-148 24 q0 10 10 10 m128 0 q10 0 10 -10 m-138 10 h10 m96 0 h10 m0 0 h12 m-138 -10 v20 m148 0 v-20 m-148 20 v24 m148 0 v-24 m-148 24 q0 10 10 10 m128 0 q10 0 10 -10 m-138 10 h10 m98 0 h10 m0 0 h10 m-138 -10 v20 m148 0 v-20 m-148 20 v24 m148 0 v-24 m-148 24 q0 10 10 10 m128 0 q10 0 10 -10 m-138 10 h10 m90 0 h10 m0 0 h18 m-138 -10 v20 m148 0 v-20 m-148 20 v24 m148 0 v-24 m-148 24 q0 10 10 10 m128 0 q10 0 10 -10 m-138 10 h10 m102 0 h10 m0 0 h6 m-138 -10 v20 m148 0 v-20 m-148 20 v24 m148 0 v-24 m-148 24 q0 10 10 10 m128 0 q10 0 10 -10 m-138 10 h10 m68 0 h10 m0 0 h40 m23 -1100 h-3"/>
   <polygon points="197 17 205 13 205 21"/>
   <polygon points="197 17 189 13 189 21"/>
</svg>
