<?xml version="1.0" encoding="UTF-8"?>
<svg xmlns="http://www.w3.org/2000/svg" width="205" height="257">
   <defs>
      <style type="text/css">
    @namespace "http://www.w3.org/2000/svg";
    .line                 {fill: none; stroke: #332900; stroke-width: 1;}
    .bold-line            {stroke: #141000; shape-rendering: crispEdges; stroke-width: 2;}
    .thin-line            {stroke: #1F1800; shape-rendering: crispEdges}
    .filled               {fill: #332900; stroke: none;}
    text.terminal         {font-family: Verdana, Sans-serif;
                            font-size: 12px;
                            fill: #141000;
                            font-weight: bold;
                          }
    text.nonterminal      {font-family: Verdana, Sans-serif;
                            font-size: 12px;
                            fill: #1A1400;
                            font-weight: normal;
                          }
    text.regexp           {font-family: Verdana, Sans-serif;
                            font-size: 12px;
                            fill: #1F1800;
                            font-weight: normal;
                          }
    rect, circle, polygon {fill: #332900; stroke: #332900;}
    rect.terminal         {fill: #FFDB4D; stroke: #332900; stroke-width: 1;}
    rect.nonterminal      {fill: #FFEC9E; stroke: #332900; stroke-width: 1;}
    rect.text             {fill: none; stroke: none;}
    polygon.regexp        {fill: #FFF4C7; stroke: #332900; stroke-width: 1;}
  </style>
   </defs>
   <polygon points="9 17 1 13 1 21"/>
   <polygon points="17 17 9 13 9 21"/>
   <a xmlns:xlink="http://www.w3.org/1999/xlink"
      xlink:href="#if_then"
      xlink:title="if_then">
      <rect x="51" y="3" width="64" height="32"/>
      <rect x="49" y="1" width="64" height="32" class="nonterminal"/>
      <text class="nonterminal" x="59" y="21">if_then</text>
   </a>
   <a xmlns:xlink="http://www.w3.org/1999/xlink"
      xlink:href="#if_else_then"
      xlink:title="if_else_then">
      <rect x="51" y="47" width="98" height="32"/>
      <rect x="49" y="45" width="98" height="32" class="nonterminal"/>
      <text class="nonterminal" x="59" y="65">if_else_then</text>
   </a>
   <a xmlns:xlink="http://www.w3.org/1999/xlink"
      xlink:href="#loop_until"
      xlink:title="loop_until">
      <rect x="51" y="91" width="82" height="32"/>
      <rect x="49" y="89" width="82" height="32" class="nonterminal"/>
      <text class="nonterminal" x="59" y="109">loop_until</text>
   </a>
   <a xmlns:xlink="http://www.w3.org/1999/xlink"
      xlink:href="#loop_while"
      xlink:title="loop_while">
      <rect x="51" y="135" width="88" height="32"/>
      <rect x="49" y="133" width="88" height="32" class="nonterminal"/>
      <text class="nonterminal" x="59" y="153">loop_while</text>
   </a>
   <a xmlns:xlink="http://www.w3.org/1999/xlink"
      xlink:href="#do_loop"
      xlink:title="do_loop">
      <rect x="51" y="179" width="70" height="32"/>
      <rect x="49" y="177" width="70" height="32" class="nonterminal"/>
      <text class="nonterminal" x="59" y="197">do_loop</text>
   </a>
   <a xmlns:xlink="http://www.w3.org/1999/xlink"
      xlink:href="#do_plus_loop"
      xlink:title="do_plus_loop">
      <rect x="51" y="223" width="106" height="32"/>
      <rect x="49" y="221" width="106" height="32" class="nonterminal"/>
      <text class="nonterminal" x="59" y="241">do_plus_loop</text>
   </a>
   <path class="line"
         d="m17 17 h2 m20 0 h10 m64 0 h10 m0 0 h42 m-146 0 h20 m126 0 h20 m-166 0 q10 0 10 10 m146 0 q0 -10 10 -10 m-156 10 v24 m146 0 v-24 m-146 24 q0 10 10 10 m126 0 q10 0 10 -10 m-136 10 h10 m98 0 h10 m0 0 h8 m-136 -10 v20 m146 0 v-20 m-146 20 v24 m146 0 v-24 m-146 24 q0 10 10 10 m126 0 q10 0 10 -10 m-136 10 h10 m82 0 h10 m0 0 h24 m-136 -10 v20 m146 0 v-20 m-146 20 v24 m146 0 v-24 m-146 24 q0 10 10 10 m126 0 q10 0 10 -10 m-136 10 h10 m88 0 h10 m0 0 h18 m-136 -10 v20 m146 0 v-20 m-146 20 v24 m146 0 v-24 m-146 24 q0 10 10 10 m126 0 q10 0 10 -10 m-136 10 h10 m70 0 h10 m0 0 h36 m-136 -10 v20 m146 0 v-20 m-146 20 v24 m146 0 v-24 m-146 24 q0 10 10 10 m126 0 q10 0 10 -10 m-136 10 h10 m106 0 h10 m23 -220 h-3"/>
   <polygon points="195 17 203 13 203 21"/>
   <polygon points="195 17 187 13 187 21"/>
</svg>
