<?xml version="1.0" encoding="UTF-8"?>
<svg xmlns="http://www.w3.org/2000/svg" width="649" height="69">
   <defs>
      <style type="text/css">
    @namespace "http://www.w3.org/2000/svg";
    .line                 {fill: none; stroke: #332900; stroke-width: 1;}
    .bold-line            {stroke: #141000; shape-rendering: crispEdges; stroke-width: 2;}
    .thin-line            {stroke: #1F1800; shape-rendering: crispEdges}
    .filled               {fill: #332900; stroke: none;}
    text.terminal         {font-family: Verdana, Sans-serif;
                            font-size: 12px;
                            fill: #141000;
                            font-weight: bold;
                          }
    text.nonterminal      {font-family: Verdana, Sans-serif;
                            font-size: 12px;
                            fill: #1A1400;
                            font-weight: normal;
                          }
    text.regexp           {font-family: Verdana, Sans-serif;
                            font-size: 12px;
                            fill: #1F1800;
                            font-weight: normal;
                          }
    rect, circle, polygon {fill: #332900; stroke: #332900;}
    rect.terminal         {fill: #FFDB4D; stroke: #332900; stroke-width: 1;}
    rect.nonterminal      {fill: #FFEC9E; stroke: #332900; stroke-width: 1;}
    rect.text             {fill: none; stroke: none;}
    polygon.regexp        {fill: #FFF4C7; stroke: #332900; stroke-width: 1;}
  </style>
   </defs>
   <polygon points="9 17 1 13 1 21"/>
   <polygon points="17 17 9 13 9 21"/>
   <rect x="31" y="3" width="70" height="32" rx="10"/>
   <rect x="29"
         y="1"
         width="70"
         height="32"
         class="terminal"
         rx="10"/>
   <text class="terminal" x="39" y="21">MACRO</text>
   <rect x="121" y="3" width="62" height="32" rx="10"/>
   <rect x="119"
         y="1"
         width="62"
         height="32"
         class="terminal"
         rx="10"/>
   <text class="terminal" x="129" y="21">IDENT</text>
   <rect x="223" y="35" width="142" height="32" rx="10"/>
   <rect x="221"
         y="33"
         width="142"
         height="32"
         class="terminal"
         rx="10"/>
   <text class="terminal" x="231" y="53">STACK_COMMENT</text>
   <a xmlns:xlink="http://www.w3.org/1999/xlink"
      xlink:href="#macro_body"
      xlink:title="macro_body">
      <rect x="405" y="3" width="98" height="32"/>
      <rect x="403" y="1" width="98" height="32" class="nonterminal"/>
      <text class="nonterminal" x="413" y="21">macro_body</text>
   </a>
   <rect x="523" y="3" width="98" height="32" rx="10"/>
   <rect x="521"
         y="1"
         width="98"
         height="32"
         class="terminal"
         rx="10"/>
   <text class="terminal" x="531" y="21">ENDMACRO</text>
   <path class="line"
         d="m17 17 h2 m0 0 h10 m70 0 h10 m0 0 h10 m62 0 h10 m20 0 h10 m0 0 h152 m-182 0 h20 m162 0 h20 m-202 0 q10 0 10 10 m182 0 q0 -10 10 -10 m-192 10 v12 m182 0 v-12 m-182 12 q0 10 10 10 m162 0 q10 0 10 -10 m-172 10 h10 m142 0 h10 m20 -32 h10 m98 0 h10 m0 0 h10 m98 0 h10 m3 0 h-3"/>
   <polygon points="639 17 647 13 647 21"/>
   <polygon points="639 17 631 13 631 21"/>
</svg>
