<?xml version="1.0" encoding="UTF-8"?>
<svg xmlns="http://www.w3.org/2000/svg" width="239" height="189">
   <defs>
      <style type="text/css">
    @namespace "http://www.w3.org/2000/svg";
    .line                 {fill: none; stroke: #332900; stroke-width: 1;}
    .bold-line            {stroke: #141000; shape-rendering: crispEdges; stroke-width: 2;}
    .thin-line            {stroke: #1F1800; shape-rendering: crispEdges}
    .filled               {fill: #332900; stroke: none;}
    text.terminal         {font-family: Verdana, Sans-serif;
                            font-size: 12px;
                            fill: #141000;
                            font-weight: bold;
                          }
    text.nonterminal      {font-family: Verdana, Sans-serif;
                            font-size: 12px;
                            fill: #1A1400;
                            font-weight: normal;
                          }
    text.regexp           {font-family: Verdana, Sans-serif;
                            font-size: 12px;
                            fill: #1F1800;
                            font-weight: normal;
                          }
    rect, circle, polygon {fill: #332900; stroke: #332900;}
    rect.terminal         {fill: #FFDB4D; stroke: #332900; stroke-width: 1;}
    rect.nonterminal      {fill: #FFEC9E; stroke: #332900; stroke-width: 1;}
    rect.text             {fill: none; stroke: none;}
    polygon.regexp        {fill: #FFF4C7; stroke: #332900; stroke-width: 1;}
  </style>
   </defs>
   <polygon points="9 183 1 179 1 187"/>
   <polygon points="17 183 9 179 9 187"/>
   <a xmlns:xlink="http://www.w3.org/1999/xlink"
      xlink:href="#statement"
      xlink:title="statement">
      <rect x="51" y="135" width="86" height="32"/>
      <rect x="49" y="133" width="86" height="32" class="nonterminal"/>
      <text class="nonterminal" x="59" y="153">statement</text>
   </a>
   <a xmlns:xlink="http://www.w3.org/1999/xlink"
      xlink:href="#org_directive"
      xlink:title="org_directive">
      <rect x="51" y="91" width="102" height="32"/>
      <rect x="49" y="89" width="102" height="32" class="nonterminal"/>
      <text class="nonterminal" x="59" y="109">org_directive</text>
   </a>
   <a xmlns:xlink="http://www.w3.org/1999/xlink"
      xlink:href="#arch_flag_directive"
      xlink:title="arch_flag_directive">
      <rect x="51" y="47" width="140" height="32"/>
      <rect x="49" y="45" width="140" height="32" class="nonterminal"/>
      <text class="nonterminal" x="59" y="65">arch_flag_directive</text>
   </a>
   <a xmlns:xlink="http://www.w3.org/1999/xlink"
      xlink:href="#define_directive"
      xlink:title="define_directive">
      <rect x="51" y="3" width="122" height="32"/>
      <rect x="49" y="1" width="122" height="32" class="nonterminal"/>
      <text class="nonterminal" x="59" y="21">define_directive</text>
   </a>
   <path class="line"
         d="m17 183 h2 m20 0 h10 m0 0 h150 m-180 0 l20 0 m-1 0 q-9 0 -9 -10 l0 -14 q0 -10 10 -10 m160 34 l20 0 m-20 0 q10 0 10 -10 l0 -14 q0 -10 -10 -10 m-160 0 h10 m86 0 h10 m0 0 h54 m-170 10 l0 -44 q0 -10 10 -10 m170 54 l0 -44 q0 -10 -10 -10 m-160 0 h10 m102 0 h10 m0 0 h38 m-170 10 l0 -44 q0 -10 10 -10 m170 54 l0 -44 q0 -10 -10 -10 m-160 0 h10 m140 0 h10 m-170 10 l0 -44 q0 -10 10 -10 m170 54 l0 -44 q0 -10 -10 -10 m-160 0 h10 m122 0 h10 m0 0 h18 m23 166 h-3"/>
   <polygon points="229 183 237 179 237 187"/>
   <polygon points="229 183 221 179 221 187"/>
</svg>
